<?xml version="1.0" encoding="utf-8"?>
<!-- Generator: Adobe Illustrator 21.1.0, SVG Export Plug-In . SVG Version: 6.00 Build 0)  -->
<svg version="1.1" id="Layer_1" xmlns="http://www.w3.org/2000/svg" xmlns:xlink="http://www.w3.org/1999/xlink" x="0px" y="0px"
	 width="88px" height="95.2px" viewBox="0 0 88 95.2" style="enable-background:new 0 0 88 95.2;" xml:space="preserve">
<style type="text/css">
	.st0{fill:#242D3C;}
	.st1{fill:#9492F5;}
	.st2{fill:#FF8EB9;}
</style>
<g>
	<g>
		<g>
			<polygon class="st0" points="88,73.7 80.6,73.7 80.6,70.2 84.5,70.2 84.5,14.1 3.5,14.1 3.5,70.2 7.4,70.2 7.4,73.7 0,73.7 
				0,10.6 88,10.6 			"/>
		</g>
		<g>
			<path class="st0" d="M88,14.1H0V0h88V14.1z M3.5,10.6h81v-7h-81V10.6z"/>
		</g>
		<g>
			<g>
				<rect x="9.5" y="5.3" class="st0" width="3.5" height="3.5"/>
			</g>
			<g>
				<rect x="16.6" y="5.3" class="st0" width="3.5" height="3.5"/>
			</g>
			<g>
				<rect x="23.6" y="5.3" class="st0" width="3.5" height="3.5"/>
			</g>
		</g>
	</g>
	<path class="st1" d="M9.5,20.1v46.2h7.2c0-0.1,0-0.1,0-0.2c0-15.1,12.2-27.3,27.3-27.3c15.1,0,27.3,12.2,27.3,27.3
		c0,0.1,0,0.1,0,0.2h7.2V20.1H9.5z"/>
	<g>
		<g>
			<g>
				<path class="st0" d="M44,95.2c-16,0-29-13-29-29c0-16,13-29,29-29c16,0,29,13,29,29C73,82.1,60,95.2,44,95.2z M44,40.6
					c-14.1,0-25.5,11.4-25.5,25.5c0,14.1,11.4,25.5,25.5,25.5c14.1,0,25.5-11.4,25.5-25.5C69.5,52.1,58.1,40.6,44,40.6z"/>
			</g>
			<g>
				<rect x="42.2" y="31.3" class="st0" width="3.5" height="7.5"/>
			</g>
			<g>
				<path class="st0" d="M47.4,36.5h-6.8c-1.4,0-2.7-0.5-3.7-1.5c-1-1-1.5-2.3-1.5-3.7c0-1.4,0.5-2.7,1.5-3.7c1-1,2.3-1.5,3.7-1.5
					h6.8c1.4,0,2.7,0.5,3.7,1.5l0,0c1,1,1.5,2.3,1.5,3.7c0,1.4-0.5,2.7-1.5,3.7C50.1,36,48.8,36.5,47.4,36.5z M40.6,29.7
					c-0.4,0-0.9,0.2-1.2,0.5c-0.3,0.3-0.5,0.7-0.5,1.2c0,0.4,0.2,0.9,0.5,1.2c0.3,0.3,0.7,0.5,1.2,0.5h6.8c0.4,0,0.9-0.2,1.2-0.5
					c0.3-0.3,0.5-0.7,0.5-1.2c0-0.4-0.2-0.9-0.5-1.2c-0.3-0.3-0.7-0.5-1.2-0.5H40.6z"/>
			</g>
			<g>
				<path class="st0" d="M68.6,47.9l-2.5-2.5l1.6-1.6l0-0.1l-1.3-1.3L65,41.2l1.2,1.2l-1.6,1.6l-2.5-2.5l1.6-1.6
					c0.7-0.7,1.6-1,2.5-1c1,0,1.9,0.4,2.5,1.1l1.3,1.3c0.7,0.7,1.1,1.6,1.1,2.5c0,1-0.4,1.9-1.1,2.5L68.6,47.9z"/>
			</g>
			<g>
				<path class="st0" d="M19.5,47.9l-1.6-1.6c-0.7-0.7-1.1-1.6-1.1-2.5c0-1,0.4-1.9,1.1-2.5l1.3-1.3c0.7-0.7,1.6-1,2.5-1
					c1,0,1.9,0.4,2.5,1l1.6,1.6l-2.5,2.5l-1.6-1.6l0,0l-0.1,0l-1.3,1.3l-1.2,1.3l1.2-1.2l1.6,1.6L19.5,47.9z"/>
			</g>
		</g>
		<g>
			<g>
				<path class="st2" d="M44,43.4v19.3c1.9,0,3.4,1.5,3.4,3.4h19.3C66.7,53.6,56.6,43.4,44,43.4z"/>
			</g>
			<g>
				<g>
					
						<rect x="53" y="46.1" transform="matrix(0.4981 -0.8671 0.8671 0.4981 -14.0848 71.3155)" class="st0" width="3.2" height="3.5"/>
				</g>
				<g>
					<rect x="42.2" y="43.4" class="st0" width="3.5" height="3.2"/>
				</g>
				<g>
					
						<rect x="31.7" y="46.2" transform="matrix(0.8654 -0.5011 0.5011 0.8654 -19.4645 23.1893)" class="st0" width="3.5" height="3.2"/>
				</g>
				<g>
					
						<rect x="23.9" y="54" transform="matrix(0.4985 -0.8669 0.8669 0.4985 -35.2783 50.1352)" class="st0" width="3.5" height="3.2"/>
				</g>
				<g>
					<rect x="21.3" y="64.4" class="st0" width="3.2" height="3.5"/>
				</g>
				<g>
					
						<rect x="24.1" y="74.9" transform="matrix(0.8658 -0.5005 0.5005 0.8658 -34.9326 23.1548)" class="st0" width="3.2" height="3.5"/>
				</g>
				<g>
					
						<rect x="31.8" y="82.7" transform="matrix(0.5004 -0.8658 0.8658 0.5004 -56.3949 71.1269)" class="st0" width="3.2" height="3.5"/>
				</g>
				<g>
					<rect x="42.2" y="85.7" class="st0" width="3.5" height="3.2"/>
				</g>
				<g>
					
						<rect x="52.8" y="82.8" transform="matrix(0.8673 -0.4978 0.4978 0.8673 -34.7865 38.3652)" class="st0" width="3.5" height="3.2"/>
				</g>
				<g>
					
						<rect x="60.5" y="75.1" transform="matrix(0.499 -0.8666 0.8666 0.499 -35.2481 92.4126)" class="st0" width="3.5" height="3.2"/>
				</g>
				<g>
					<rect x="63.5" y="64.4" class="st0" width="3.2" height="3.5"/>
				</g>
				<g>
					
						<rect x="60.7" y="53.8" transform="matrix(0.8679 -0.4968 0.4968 0.8679 -19.3702 38.2927)" class="st0" width="3.2" height="3.5"/>
				</g>
			</g>
			<g>
				<g>
					<path class="st0" d="M44,71.3c-2.8,0-5.2-2.3-5.2-5.2c0-2.8,2.3-5.2,5.2-5.2c2.8,0,5.2,2.3,5.2,5.2C49.2,69,46.8,71.3,44,71.3z
						 M44,64.5c-0.9,0-1.6,0.7-1.6,1.6c0,0.9,0.7,1.7,1.6,1.7c0.9,0,1.6-0.7,1.6-1.7C45.6,65.2,44.9,64.5,44,64.5z"/>
				</g>
				<g>
					<rect x="47.4" y="64.4" class="st0" width="8.6" height="3.5"/>
				</g>
			</g>
		</g>
	</g>
</g>
</svg>
