<?xml version="1.0" encoding="utf-8"?>
<!-- Generator: Adobe Illustrator 21.1.0, SVG Export Plug-In . SVG Version: 6.00 Build 0)  -->
<svg version="1.1" id="Layer_1" xmlns="http://www.w3.org/2000/svg" xmlns:xlink="http://www.w3.org/1999/xlink" x="0px" y="0px"
	 width="90.1px" height="96px" viewBox="0 0 90.1 96" style="enable-background:new 0 0 90.1 96;" xml:space="preserve">
<style type="text/css">
	.st0{fill:#242D3C;}
	.st1{fill:#9492F5;}
	.st2{fill:#FF8EB9;}
</style>
<g>
	<g>
		<g>
			<polygon class="st0" points="59.5,96 30.5,96 30.5,86.3 34.1,86.3 34.1,92.4 55.9,92.4 55.9,86.3 59.5,86.3 			"/>
		</g>
		<g>
			<rect x="25.1" y="92.4" class="st0" width="39.9" height="3.6"/>
		</g>
		<g>
			<path class="st0" d="M90.1,72.9H0V15.6c0-1.3,0.5-2.5,1.4-3.4c0.9-0.9,2.1-1.4,3.4-1.4h16v3.6h-16c-0.2,0-0.6,0.1-0.9,0.4
				c-0.2,0.2-0.4,0.5-0.4,0.9v53.7h82.9V15.6c0-0.3-0.1-0.6-0.4-0.9c-0.2-0.2-0.5-0.4-0.9-0.4h-16v-3.6h16c1.3,0,2.5,0.5,3.4,1.4
				c0.9,0.9,1.4,2.1,1.4,3.4V72.9z"/>
		</g>
		<g>
			<path class="st0" d="M85.2,83.1H4.9c-1.3,0-2.5-0.5-3.4-1.4C0.5,80.7,0,79.5,0,78.2v-8.9h90.1v8.9c0,1.3-0.5,2.5-1.4,3.4
				C87.7,82.6,86.5,83.1,85.2,83.1z M3.6,72.9v5.3c0,0.3,0.1,0.6,0.4,0.9c0.3,0.3,0.7,0.4,0.9,0.4h80.4c0.2,0,0.6,0,0.9-0.4
				c0.2-0.2,0.4-0.6,0.4-0.9v-5.3H3.6z"/>
		</g>
		<g>
			<rect x="70.1" y="19.7" class="st1" width="11" height="44.2"/>
		</g>
		<g>
			<rect x="9.2" y="19.9" class="st1" width="12.9" height="44"/>
		</g>
	</g>
	<g>
		<g>
			<polygon class="st0" points="71,63.9 67.4,63.9 67.4,13.3 57.7,3.6 22.7,3.6 22.7,63.9 19.1,63.9 19.1,0 59.2,0 71,11.8 			"/>
		</g>
		<g>
			<polygon class="st0" points="69.2,14.3 56.6,14.3 56.6,1.8 60.2,1.8 60.2,10.7 69.2,10.7 			"/>
		</g>
	</g>
	<g>
		<g>
			<g>
				<g>
					<rect x="42.5" y="47" class="st0" width="18.7" height="3.6"/>
				</g>
			</g>
			<g>
				<g>
					<rect x="42.5" y="52.7" class="st0" width="18.7" height="3.6"/>
				</g>
			</g>
		</g>
		<g>
			<polygon class="st2" points="32.5,56.3 27.5,51.3 30.2,48.6 32.5,50.9 36.9,46.5 39.6,49.2 			"/>
		</g>
	</g>
	<g>
		<g>
			<g>
				<rect x="42.5" y="34" class="st0" width="18.7" height="3.6"/>
			</g>
			<g>
				<rect x="42.5" y="39.8" class="st0" width="18.7" height="3.6"/>
			</g>
		</g>
		<g>
			<polygon class="st2" points="32.5,43.4 27.5,38.4 30.2,35.7 32.5,37.9 36.9,33.5 39.6,36.2 			"/>
		</g>
	</g>
	<g>
		<g>
			<g>
				<rect x="42.5" y="21" class="st0" width="18.7" height="3.6"/>
			</g>
			<g>
				<rect x="42.5" y="26.8" class="st0" width="18.7" height="3.6"/>
			</g>
		</g>
		<g>
			<polygon class="st2" points="32.5,30.4 27.5,25.4 30.2,22.7 32.5,25 36.9,20.6 39.6,23.3 			"/>
		</g>
	</g>
</g>
</svg>
