<?xml version="1.0" encoding="utf-8"?>
<!-- Generator: Adobe Illustrator 21.1.0, SVG Export Plug-In . SVG Version: 6.00 Build 0)  -->
<svg version="1.1" id="Layer_1" xmlns="http://www.w3.org/2000/svg" xmlns:xlink="http://www.w3.org/1999/xlink" x="0px" y="0px"
	 width="126px" height="95.7px" viewBox="0 0 126 95.7" style="enable-background:new 0 0 126 95.7;" xml:space="preserve">
<style type="text/css">
	.st0{fill:#242D3C;}
	.st1{fill:#9492F5;}
	.st2{fill:#FFFFFF;stroke:#000000;stroke-width:2;stroke-miterlimit:10;}
	.st3{fill:#242D3C;stroke:#242D3C;stroke-width:2;stroke-miterlimit:10;}
	.st4{fill:#FF8EB9;}
	.st5{fill:#FFFFFF;}
</style>
<g>
	<g>
		<g>
			<path class="st0" d="M115.7,86.6H10.3V23.3c0-1.5,0.6-2.8,1.6-3.9c1-1,2.4-1.6,3.9-1.6h94.5c1.5,0,2.8,0.6,3.9,1.6
				c1,1,1.6,2.4,1.6,3.9v63.3H115.7z M14.5,82.4h97V23.3c0-0.3-0.1-0.7-0.4-0.9c-0.2-0.2-0.6-0.4-0.9-0.4H15.8
				c-0.3,0-0.7,0.1-0.9,0.4c-0.3,0.3-0.4,0.6-0.4,0.9L14.5,82.4z"/>
			<rect x="20.5" y="28" class="st1" width="85" height="56.5"/>
			<path class="st0" d="M119.4,95.7H6.6c-1.8,0-3.4-0.7-4.7-1.9c-1.2-1.3-1.9-3-1.9-4.7v-6.6h126v6.6c0,1.8-0.7,3.4-1.9,4.7
				C122.8,95,121.2,95.7,119.4,95.7z M4.2,86.6V89c0,0.6,0.2,1.2,0.7,1.7s1.1,0.7,1.7,0.7h112.8c0.6,0,1.2-0.3,1.7-0.7
				c0.4-0.4,0.7-1.1,0.7-1.7v-2.4H4.2z"/>
		</g>
		<g>
			<rect x="42.8" y="49.9" class="st0" width="4.2" height="15.1"/>
			<rect x="79" y="49.9" class="st0" width="4.2" height="15.1"/>
			<rect x="60.9" y="57.5" class="st0" width="4.2" height="15.1"/>
		</g>
	</g>
	<g>
		<g>
			<path class="st2" d="M71.5,1.9c-3.3,0-6.3,1.3-8.5,3.5c-2.2-2.2-5.2-3.5-8.5-3.5c-6.6,0-12,5.4-12,12c0,3.3,1.3,6.3,3.5,8.5
				l17,16.9l16.9-16.9c2.2-2.2,3.5-5.2,3.5-8.5C83.4,7.2,78.1,1.9,71.5,1.9z"/>
			<path class="st3" d="M63,40.5L45.5,23c-2.4-2.4-3.8-5.7-3.8-9.1C41.7,6.8,47.4,1,54.5,1c3.1,0,6.1,1.1,8.5,3.2
				C65.3,2.1,68.3,1,71.5,1c7.1,0,12.9,5.8,12.9,12.9c0,3.4-1.3,6.7-3.8,9.1L63,40.5z M54.5,2.8c-6.1,0-11.1,5-11.1,11.1
				c0,3,1.2,5.8,3.3,7.8L63,38l16.3-16.3c2.1-2.1,3.2-4.9,3.2-7.8c0-6.1-5-11.1-11.1-11.1c-3,0-5.7,1.2-7.8,3.2L63,6.7L62.4,6
				C60.3,3.9,57.5,2.8,54.5,2.8z"/>
		</g>
		<path class="st4" d="M50.7,19.6c-1.4-1.4-2.1-3.2-2.1-5.1c0-3.9,3.3-7.2,7.2-7.2c1.9,0,3.8,0.8,5.1,2.1l2.1,2.1l2.1-2.1
			c1.4-1.4,3.2-2.1,5.1-2.1c3.9,0,7.2,3.3,7.2,7.2c0,1.9-0.8,3.8-2.1,5.1L63,32L50.7,19.6z"/>
		<g>
			<path class="st5" d="M52.4,18c-0.9-0.9-1.5-2.1-1.5-3.5c0-2.7,2.2-5,5-5v1.5c-1.9,0-3.4,1.5-3.4,3.4c0,0.9,0.3,1.8,1,2.4L52.4,18
				z"/>
		</g>
	</g>
</g>
</svg>
